<svg xmlns="http://www.w3.org/2000/svg" version="1.1" xmlns:xlink="http://www.w3.org/1999/xlink" xmlns:svgjs="http://svgjs.dev/svgjs" width="128" height="128" viewBox="0 0 128 128"><g transform="matrix(0.8046875,0,0,0.8046875,12.720314543585538,12.760752631578946)"><svg viewBox="0 0 95 95" data-background-color="#282634" preserveAspectRatio="xMidYMid meet" height="128" width="128" xmlns="http://www.w3.org/2000/svg" xmlns:xlink="http://www.w3.org/1999/xlink"><g id="tight-bounds" transform="matrix(1,0,0,1,-0.20320273437496894,-0.24049999999999727)"><svg viewBox="0 0 95.40640546875001 95.481" height="95.481" width="95.40640546875001"><g><svg viewBox="0 0 95.40640546875001 95.481" height="95.481" width="95.40640546875001"><g><svg viewBox="0 0 95.40640546875001 95.481" height="95.481" width="95.40640546875001"><g id="textblocktransform"><svg viewBox="0 0 95.40640546875001 95.481" height="95.481" width="95.40640546875001" id="textblock"><g><svg viewBox="0 0 95.40640546875001 95.481" height="95.481" width="95.40640546875001"><g><svg viewBox="0 0 95.40640546875001 95.481" height="95.481" width="95.40640546875001"><g><svg xmlns="http://www.w3.org/2000/svg" xmlns:xlink="http://www.w3.org/1999/xlink" version="1.1" x="0" y="0" viewBox="-252.95 348.95000000000005 95.92500000000001 96" enable-background="new -255 347 100 100" xml:space="preserve" height="95.481" width="95.40640546875001" class="icon-icon-0" data-fill-palette-color="accent" id="icon-0"><g fill="#ff4057" data-fill-palette-color="accent"><path d="M-167.2 434.8c-8.2 8.2-21.6 8.2-29.8 0l-22.9-22.9 29.8-29.8 22.9 22.9C-159 413.2-159 426.6-167.2 434.8M-197.5 381.7c-0.7 0.7-1.8 0.7-2.5 0l-17.8-17.8c-5.6-5.6-14.8-5.6-20.4 0-0.7 0.7-1.8 0.7-2.5 0s-0.7-1.8 0-2.5c7-7 18.3-7 25.3 0l17.8 17.8C-196.8 379.9-196.8 381-197.5 381.7M-164.3 402.1l-22.9-22.9-22.9-22.9c-9.8-9.8-25.7-9.8-35.5 0-9.8 9.8-9.8 25.7 0 35.5l22.9 22.9 22.9 22.9c9.8 9.8 25.7 9.8 35.5 0C-154.6 427.9-154.6 411.9-164.3 402.1" fill="#ff4057" data-fill-palette-color="accent"></path></g></svg></g></svg></g></svg></g></svg></g></svg></g></svg></g><defs></defs></svg><rect width="95.40640546875001" height="95.481" fill="none" stroke="none" visibility="hidden"></rect></g></svg></g></svg>